<svg width="195" height="93" viewBox="0 0 195 93" fill="none" xmlns="http://www.w3.org/2000/svg">
<path d="M75.5 14.4133C73 11.6356 32 -2.5867 26.5 0.413292C21 3.41329 0 47.4133 0 53.9133C0 60.4133 40.572 92.9743 40.572 92.9743C40.572 92.9743 83.974 67.4133 84.5 62.9133C85.026 58.4133 78 17.191 75.5 14.4133Z" fill="#0047BA"/>
<path opacity="0.5" d="M36.894 26.8013H30.469L26.153 46.3633L22.558 26.8033H15.032L21.711 57.9943H29.534L33.65 40.2163L37.85 57.9943H45.7L52.369 26.8013H44.869L41.269 46.3633L36.894 26.8013ZM74.686 57.9923V57.6253C73.9678 56.0999 73.6276 54.424 73.694 52.7393V42.4843C73.7248 41.3588 73.5015 40.2409 73.0408 39.2136C72.5801 38.1862 71.8939 37.2759 71.033 36.5503C69.0171 35.0103 66.5168 34.2424 63.984 34.3853C61.3753 34.2755 58.8008 35.0102 56.643 36.4803C55.7473 37.0795 55.0153 37.8927 54.5134 38.8463C54.0116 39.7999 53.7557 40.8638 53.769 41.9413H61.034C60.9889 41.5935 61.025 41.2399 61.1394 40.9084C61.2538 40.5769 61.4435 40.2764 61.6935 40.0304C61.9436 39.7844 62.2472 39.5997 62.5805 39.4908C62.9139 39.3818 63.268 39.3515 63.615 39.4023C65.4703 39.4023 66.3967 40.469 66.394 42.6023V43.8253H64.155C61.3078 43.648 58.4722 44.3227 56.01 45.7633C55.0924 46.3923 54.3526 47.2474 53.8621 48.2459C53.3716 49.2444 53.147 50.3526 53.21 51.4633C53.1934 52.4134 53.3931 53.3549 53.7938 54.2166C54.1945 55.0783 54.7858 55.8376 55.523 56.4373C57.0814 57.7658 59.0759 58.4714 61.123 58.4183C62.1868 58.4707 63.2479 58.2708 64.2198 57.835C65.1916 57.3991 66.0466 56.7396 66.715 55.9103C66.8486 56.6322 67.0815 57.3322 67.407 57.9903H74.68L74.686 57.9923ZM61.169 52.6703C60.9469 52.4688 60.7715 52.2212 60.6551 51.9448C60.5387 51.6685 60.484 51.37 60.495 51.0703C60.495 48.8143 61.7596 47.685 64.289 47.6823H66.405V51.3913C66.0952 51.9297 65.6528 52.38 65.12 52.6993C64.4402 53.1067 63.657 53.3088 62.865 53.2813C62.2408 53.303 61.6321 53.0839 61.165 52.6693L61.169 52.6703Z" fill="#363636"/>
<path d="M36.291 26.2013H29.866L25.55 45.7633L21.955 26.2033H14.429L21.108 57.3943H28.931L33.047 39.6163L37.247 57.3943H45.097L51.766 26.2013H44.266L40.666 45.7633L36.291 26.2013ZM74.083 57.3923V57.0253C73.3648 55.4999 73.0245 53.824 73.091 52.1393V41.8843C73.1217 40.7588 72.8985 39.6409 72.4378 38.6136C71.9771 37.5862 71.2908 36.6759 70.43 35.9503C68.4141 34.4103 65.9137 33.6424 63.381 33.7853C60.7723 33.6755 58.1978 34.4102 56.04 35.8803C55.1443 36.4794 54.4123 37.2927 53.9104 38.2463C53.4085 39.1999 53.1527 40.2638 53.166 41.3413H60.431C60.3859 40.9935 60.422 40.6399 60.5364 40.3084C60.6508 39.9769 60.8405 39.6764 61.0905 39.4304C61.3405 39.1844 61.6441 38.9997 61.9775 38.8908C62.3109 38.7818 62.6649 38.7515 63.012 38.8023C64.8673 38.8023 65.7936 39.869 65.791 42.0023V43.2253H63.552C60.7047 43.048 57.8692 43.7226 55.407 45.1633C54.4894 45.7923 53.7496 46.6474 53.2591 47.6459C52.7686 48.6444 52.544 49.7526 52.607 50.8633C52.5906 51.8133 52.7903 52.7546 53.191 53.6161C53.5917 54.4776 54.1829 55.2368 54.92 55.8363C56.4783 57.1648 58.4728 57.8704 60.52 57.8173C61.5838 57.8697 62.6449 57.6698 63.6168 57.234C64.5886 56.7981 65.4436 56.1386 66.112 55.3093C66.2456 56.0312 66.4785 56.7312 66.804 57.3893H74.077L74.083 57.3923ZM60.566 52.0703C60.3439 51.8688 60.1685 51.6212 60.0521 51.3448C59.9356 51.0684 59.881 50.77 59.892 50.4703C59.892 48.2143 61.1566 47.085 63.686 47.0823H65.802V50.7913C65.4921 51.3297 65.0498 51.78 64.517 52.0993C63.8371 52.5066 63.054 52.7088 62.262 52.6813C61.6378 52.703 61.0291 52.4838 60.562 52.0693L60.566 52.0703Z" fill="white"/>
<path d="M112.273 46.6965C112.273 49.0871 111.887 51.1672 111.113 52.9367C110.34 54.6945 109.268 56.1067 107.896 57.1731L112.15 60.5129L108.793 63.4836L103.344 59.1067C102.723 59.2121 102.078 59.2649 101.41 59.2649C99.2891 59.2649 97.3965 58.7551 95.7324 57.7356C94.0684 56.716 92.7793 55.2629 91.8652 53.3762C90.9512 51.4778 90.4883 49.2981 90.4766 46.8371V45.5715C90.4766 43.052 90.9277 40.8371 91.8301 38.927C92.7441 37.0051 94.0273 35.5344 95.6797 34.5149C97.3438 33.4836 99.2422 32.968 101.375 32.968C103.508 32.968 105.4 33.4836 107.053 34.5149C108.717 35.5344 110 37.0051 110.902 38.927C111.816 40.8371 112.273 43.0461 112.273 45.5539V46.6965ZM106.93 45.5363C106.93 42.8528 106.449 40.8137 105.488 39.4192C104.527 38.0246 103.156 37.3274 101.375 37.3274C99.6055 37.3274 98.2402 38.0188 97.2793 39.4016C96.3184 40.7727 95.832 42.7883 95.8203 45.4485V46.6965C95.8203 49.3098 96.3008 51.3371 97.2617 52.7785C98.2227 54.2199 99.6055 54.9406 101.41 54.9406C103.18 54.9406 104.539 54.2492 105.488 52.8664C106.438 51.4719 106.918 49.4445 106.93 46.7844V45.5363ZM127.197 56.9797C125.943 58.5031 124.209 59.2649 121.994 59.2649C119.955 59.2649 118.396 58.6789 117.318 57.507C116.252 56.3352 115.707 54.6184 115.684 52.3567V39.8938H120.764V52.1809C120.764 54.1613 121.666 55.1516 123.471 55.1516C125.193 55.1516 126.377 54.5539 127.021 53.3586V39.8938H132.119V58.9133H127.338L127.197 56.9797ZM144.705 59.2649C141.916 59.2649 139.643 58.4094 137.885 56.6985C136.139 54.9875 135.266 52.7082 135.266 49.8606V49.3684C135.266 47.4582 135.635 45.7531 136.373 44.2531C137.111 42.7414 138.154 41.5813 139.502 40.7727C140.861 39.9524 142.408 39.5422 144.143 39.5422C146.744 39.5422 148.789 40.3625 150.277 42.0031C151.777 43.6438 152.527 45.9699 152.527 48.9817V51.0559H140.416C140.58 52.2981 141.072 53.2942 141.893 54.0442C142.725 54.7942 143.773 55.1692 145.039 55.1692C146.996 55.1692 148.525 54.4602 149.627 53.0422L152.123 55.8371C151.361 56.9153 150.33 57.759 149.029 58.3684C147.729 58.966 146.287 59.2649 144.705 59.2649ZM144.125 43.6555C143.117 43.6555 142.297 43.9953 141.664 44.675C141.043 45.3547 140.645 46.3274 140.469 47.593H147.535V47.1887C147.512 46.0637 147.207 45.1965 146.621 44.5871C146.035 43.966 145.203 43.6555 144.125 43.6555ZM165.729 53.6574C165.729 53.0363 165.418 52.55 164.797 52.1985C164.188 51.8352 163.203 51.5129 161.844 51.2317C157.32 50.2824 155.059 48.3606 155.059 45.466C155.059 43.7785 155.756 42.3723 157.15 41.2473C158.557 40.1106 160.391 39.5422 162.652 39.5422C165.066 39.5422 166.994 40.1106 168.436 41.2473C169.889 42.384 170.615 43.8606 170.615 45.677H165.535C165.535 44.9504 165.301 44.3528 164.832 43.884C164.363 43.4035 163.631 43.1633 162.635 43.1633C161.779 43.1633 161.117 43.3567 160.648 43.7434C160.18 44.1301 159.945 44.6223 159.945 45.2199C159.945 45.7824 160.209 46.2395 160.736 46.591C161.275 46.9309 162.178 47.2297 163.443 47.4875C164.709 47.7336 165.775 48.0149 166.643 48.3313C169.326 49.3156 170.668 51.0207 170.668 53.4465C170.668 55.1809 169.924 56.5871 168.436 57.6653C166.947 58.7317 165.025 59.2649 162.67 59.2649C161.076 59.2649 159.658 58.9836 158.416 58.4211C157.186 57.8469 156.219 57.0676 155.516 56.0832C154.812 55.0871 154.461 54.0149 154.461 52.8664H159.277C159.324 53.7688 159.658 54.4602 160.279 54.9406C160.9 55.4211 161.732 55.6613 162.775 55.6613C163.748 55.6613 164.48 55.4797 164.973 55.1164C165.477 54.7414 165.729 54.2551 165.729 53.6574ZM180.037 35.218V39.8938H183.289V43.6203H180.037V53.1125C180.037 53.8156 180.172 54.3195 180.441 54.6242C180.711 54.9289 181.227 55.0813 181.988 55.0813C182.551 55.0813 183.049 55.0403 183.482 54.9582V58.8078C182.486 59.1125 181.461 59.2649 180.406 59.2649C176.844 59.2649 175.027 57.466 174.957 53.8684V43.6203H172.18V39.8938H174.957V35.218H180.037Z" fill="black"/>
<path d="M186.383 56.4172C186.383 55.6086 186.652 54.9524 187.191 54.4485C187.742 53.9445 188.428 53.6926 189.248 53.6926C190.08 53.6926 190.766 53.9445 191.305 54.4485C191.855 54.9524 192.131 55.6086 192.131 56.4172C192.131 57.2141 191.861 57.8645 191.322 58.3684C190.783 58.8606 190.092 59.1067 189.248 59.1067C188.416 59.1067 187.73 58.8606 187.191 58.3684C186.652 57.8645 186.383 57.2141 186.383 56.4172Z" fill="#0047BA"/>
</svg>
